<mxfile host="app.diagrams.net" agent="Mozilla/5.0 (Windows NT 10.0; Win64; x64) AppleWebKit/537.36 (KHTML, like Gecko) Chrome/128.0.0.0 Safari/537.36 OPR/114.0.0.0" version="25.0.3">
  <diagram id="C5RBs43oDa-KdzZeNtuy" name="Page-1">
    <mxGraphModel dx="1009" dy="539" grid="1" gridSize="10" guides="1" tooltips="1" connect="1" arrows="1" fold="1" page="1" pageScale="1" pageWidth="827" pageHeight="1169" math="0" shadow="0">
      <root>
        <mxCell id="WIyWlLk6GJQsqaUBKTNV-0" />
        <mxCell id="WIyWlLk6GJQsqaUBKTNV-1" parent="WIyWlLk6GJQsqaUBKTNV-0" />
        <mxCell id="ug3Sa1Ug3LmE54OEP5yn-3" value="" style="edgeStyle=orthogonalEdgeStyle;rounded=0;orthogonalLoop=1;jettySize=auto;html=1;" edge="1" parent="WIyWlLk6GJQsqaUBKTNV-1" source="ug3Sa1Ug3LmE54OEP5yn-0" target="ug3Sa1Ug3LmE54OEP5yn-2">
          <mxGeometry relative="1" as="geometry" />
        </mxCell>
        <mxCell id="ug3Sa1Ug3LmE54OEP5yn-0" value="Camera Captures Image" style="rounded=1;whiteSpace=wrap;html=1;" vertex="1" parent="WIyWlLk6GJQsqaUBKTNV-1">
          <mxGeometry x="40" y="80" width="120" height="60" as="geometry" />
        </mxCell>
        <mxCell id="ug3Sa1Ug3LmE54OEP5yn-4" value="" style="edgeStyle=orthogonalEdgeStyle;rounded=0;orthogonalLoop=1;jettySize=auto;html=1;" edge="1" parent="WIyWlLk6GJQsqaUBKTNV-1" source="ug3Sa1Ug3LmE54OEP5yn-1" target="ug3Sa1Ug3LmE54OEP5yn-2">
          <mxGeometry relative="1" as="geometry" />
        </mxCell>
        <mxCell id="ug3Sa1Ug3LmE54OEP5yn-1" value="Depth&amp;nbsp;&lt;span style=&quot;background-color: initial;&quot;&gt;Camera Captures Image&lt;/span&gt;" style="rounded=1;whiteSpace=wrap;html=1;" vertex="1" parent="WIyWlLk6GJQsqaUBKTNV-1">
          <mxGeometry x="40" y="200" width="120" height="60" as="geometry" />
        </mxCell>
        <mxCell id="ug3Sa1Ug3LmE54OEP5yn-8" style="edgeStyle=orthogonalEdgeStyle;rounded=0;orthogonalLoop=1;jettySize=auto;html=1;exitX=1;exitY=0.5;exitDx=0;exitDy=0;entryX=0;entryY=0.5;entryDx=0;entryDy=0;" edge="1" parent="WIyWlLk6GJQsqaUBKTNV-1" source="ug3Sa1Ug3LmE54OEP5yn-2" target="ug3Sa1Ug3LmE54OEP5yn-7">
          <mxGeometry relative="1" as="geometry" />
        </mxCell>
        <mxCell id="ug3Sa1Ug3LmE54OEP5yn-2" value="Data from both cameras is captured, matched, and encoded" style="shape=process;whiteSpace=wrap;html=1;backgroundOutline=1;" vertex="1" parent="WIyWlLk6GJQsqaUBKTNV-1">
          <mxGeometry x="210" y="110" width="120" height="100" as="geometry" />
        </mxCell>
        <mxCell id="ug3Sa1Ug3LmE54OEP5yn-6" style="edgeStyle=orthogonalEdgeStyle;rounded=0;orthogonalLoop=1;jettySize=auto;html=1;" edge="1" parent="WIyWlLk6GJQsqaUBKTNV-1" source="ug3Sa1Ug3LmE54OEP5yn-5" target="ug3Sa1Ug3LmE54OEP5yn-2">
          <mxGeometry relative="1" as="geometry">
            <mxPoint x="390" y="180" as="targetPoint" />
          </mxGeometry>
        </mxCell>
        <mxCell id="ug3Sa1Ug3LmE54OEP5yn-5" value="The data is turned into a 4D tensor&lt;div&gt;(B, G, R, D)&lt;/div&gt;" style="shape=note;whiteSpace=wrap;html=1;backgroundOutline=1;darkOpacity=0.05;" vertex="1" parent="WIyWlLk6GJQsqaUBKTNV-1">
          <mxGeometry x="230" y="230" width="80" height="100" as="geometry" />
        </mxCell>
        <mxCell id="ug3Sa1Ug3LmE54OEP5yn-16" style="edgeStyle=orthogonalEdgeStyle;rounded=0;orthogonalLoop=1;jettySize=auto;html=1;exitX=1;exitY=0.5;exitDx=0;exitDy=0;entryX=0;entryY=0.5;entryDx=0;entryDy=0;" edge="1" parent="WIyWlLk6GJQsqaUBKTNV-1" source="ug3Sa1Ug3LmE54OEP5yn-7" target="ug3Sa1Ug3LmE54OEP5yn-14">
          <mxGeometry relative="1" as="geometry" />
        </mxCell>
        <mxCell id="ug3Sa1Ug3LmE54OEP5yn-7" value="Check for changes from last frame" style="shape=process;whiteSpace=wrap;html=1;backgroundOutline=1;" vertex="1" parent="WIyWlLk6GJQsqaUBKTNV-1">
          <mxGeometry x="380" y="130" width="120" height="60" as="geometry" />
        </mxCell>
        <mxCell id="ug3Sa1Ug3LmE54OEP5yn-17" style="edgeStyle=orthogonalEdgeStyle;rounded=0;orthogonalLoop=1;jettySize=auto;html=1;exitX=0.5;exitY=0;exitDx=0;exitDy=0;entryX=0.5;entryY=1;entryDx=0;entryDy=0;" edge="1" parent="WIyWlLk6GJQsqaUBKTNV-1" source="ug3Sa1Ug3LmE54OEP5yn-14" target="ug3Sa1Ug3LmE54OEP5yn-15">
          <mxGeometry relative="1" as="geometry" />
        </mxCell>
        <mxCell id="ug3Sa1Ug3LmE54OEP5yn-20" style="edgeStyle=orthogonalEdgeStyle;rounded=0;orthogonalLoop=1;jettySize=auto;html=1;exitX=1;exitY=0.5;exitDx=0;exitDy=0;entryX=0;entryY=0.5;entryDx=0;entryDy=0;" edge="1" parent="WIyWlLk6GJQsqaUBKTNV-1" source="ug3Sa1Ug3LmE54OEP5yn-14" target="ug3Sa1Ug3LmE54OEP5yn-18">
          <mxGeometry relative="1" as="geometry" />
        </mxCell>
        <mxCell id="ug3Sa1Ug3LmE54OEP5yn-14" value="Has user defined checks?" style="rhombus;whiteSpace=wrap;html=1;" vertex="1" parent="WIyWlLk6GJQsqaUBKTNV-1">
          <mxGeometry x="540" y="100" width="120" height="120" as="geometry" />
        </mxCell>
        <mxCell id="ug3Sa1Ug3LmE54OEP5yn-19" style="edgeStyle=orthogonalEdgeStyle;rounded=0;orthogonalLoop=1;jettySize=auto;html=1;exitX=1;exitY=0.5;exitDx=0;exitDy=0;entryX=0.5;entryY=0;entryDx=0;entryDy=0;" edge="1" parent="WIyWlLk6GJQsqaUBKTNV-1" source="ug3Sa1Ug3LmE54OEP5yn-15" target="ug3Sa1Ug3LmE54OEP5yn-18">
          <mxGeometry relative="1" as="geometry" />
        </mxCell>
        <mxCell id="ug3Sa1Ug3LmE54OEP5yn-15" value="Run user defined checks" style="shape=process;whiteSpace=wrap;html=1;backgroundOutline=1;" vertex="1" parent="WIyWlLk6GJQsqaUBKTNV-1">
          <mxGeometry x="540" y="10" width="120" height="60" as="geometry" />
        </mxCell>
        <mxCell id="ug3Sa1Ug3LmE54OEP5yn-23" value="" style="edgeStyle=orthogonalEdgeStyle;rounded=0;orthogonalLoop=1;jettySize=auto;html=1;" edge="1" parent="WIyWlLk6GJQsqaUBKTNV-1" source="ug3Sa1Ug3LmE54OEP5yn-18" target="ug3Sa1Ug3LmE54OEP5yn-21">
          <mxGeometry relative="1" as="geometry" />
        </mxCell>
        <mxCell id="ug3Sa1Ug3LmE54OEP5yn-18" value="Expose data to central data store" style="shape=process;whiteSpace=wrap;html=1;backgroundOutline=1;" vertex="1" parent="WIyWlLk6GJQsqaUBKTNV-1">
          <mxGeometry x="680" y="130" width="120" height="60" as="geometry" />
        </mxCell>
        <mxCell id="ug3Sa1Ug3LmE54OEP5yn-26" style="edgeStyle=orthogonalEdgeStyle;rounded=0;orthogonalLoop=1;jettySize=auto;html=1;exitX=0.5;exitY=1;exitDx=0;exitDy=0;entryX=0.5;entryY=0;entryDx=0;entryDy=0;" edge="1" parent="WIyWlLk6GJQsqaUBKTNV-1" source="ug3Sa1Ug3LmE54OEP5yn-21" target="ug3Sa1Ug3LmE54OEP5yn-24">
          <mxGeometry relative="1" as="geometry" />
        </mxCell>
        <mxCell id="ug3Sa1Ug3LmE54OEP5yn-29" style="edgeStyle=orthogonalEdgeStyle;rounded=0;orthogonalLoop=1;jettySize=auto;html=1;exitX=0;exitY=0.5;exitDx=0;exitDy=0;entryX=0.5;entryY=0;entryDx=0;entryDy=0;" edge="1" parent="WIyWlLk6GJQsqaUBKTNV-1" source="ug3Sa1Ug3LmE54OEP5yn-21" target="ug3Sa1Ug3LmE54OEP5yn-27">
          <mxGeometry relative="1" as="geometry" />
        </mxCell>
        <mxCell id="ug3Sa1Ug3LmE54OEP5yn-21" value="Has user defined adjustments?" style="rhombus;whiteSpace=wrap;html=1;" vertex="1" parent="WIyWlLk6GJQsqaUBKTNV-1">
          <mxGeometry x="675" y="220" width="130" height="130" as="geometry" />
        </mxCell>
        <mxCell id="ug3Sa1Ug3LmE54OEP5yn-28" style="edgeStyle=orthogonalEdgeStyle;rounded=0;orthogonalLoop=1;jettySize=auto;html=1;exitX=0;exitY=0.5;exitDx=0;exitDy=0;entryX=1;entryY=0.5;entryDx=0;entryDy=0;" edge="1" parent="WIyWlLk6GJQsqaUBKTNV-1" source="ug3Sa1Ug3LmE54OEP5yn-24" target="ug3Sa1Ug3LmE54OEP5yn-27">
          <mxGeometry relative="1" as="geometry" />
        </mxCell>
        <mxCell id="ug3Sa1Ug3LmE54OEP5yn-24" value="Apply image adjustments" style="shape=process;whiteSpace=wrap;html=1;backgroundOutline=1;" vertex="1" parent="WIyWlLk6GJQsqaUBKTNV-1">
          <mxGeometry x="680" y="470" width="120" height="60" as="geometry" />
        </mxCell>
        <mxCell id="ug3Sa1Ug3LmE54OEP5yn-31" style="edgeStyle=orthogonalEdgeStyle;rounded=0;orthogonalLoop=1;jettySize=auto;html=1;exitX=0;exitY=0.5;exitDx=0;exitDy=0;entryX=1;entryY=0.5;entryDx=0;entryDy=0;" edge="1" parent="WIyWlLk6GJQsqaUBKTNV-1" source="ug3Sa1Ug3LmE54OEP5yn-27" target="ug3Sa1Ug3LmE54OEP5yn-30">
          <mxGeometry relative="1" as="geometry" />
        </mxCell>
        <mxCell id="ug3Sa1Ug3LmE54OEP5yn-27" value="Render UI" style="shape=process;whiteSpace=wrap;html=1;backgroundOutline=1;" vertex="1" parent="WIyWlLk6GJQsqaUBKTNV-1">
          <mxGeometry x="525" y="470" width="120" height="60" as="geometry" />
        </mxCell>
        <mxCell id="ug3Sa1Ug3LmE54OEP5yn-33" style="edgeStyle=orthogonalEdgeStyle;rounded=0;orthogonalLoop=1;jettySize=auto;html=1;exitX=0;exitY=0.5;exitDx=0;exitDy=0;entryX=1;entryY=0.5;entryDx=0;entryDy=0;" edge="1" parent="WIyWlLk6GJQsqaUBKTNV-1" source="ug3Sa1Ug3LmE54OEP5yn-30" target="ug3Sa1Ug3LmE54OEP5yn-32">
          <mxGeometry relative="1" as="geometry" />
        </mxCell>
        <mxCell id="ug3Sa1Ug3LmE54OEP5yn-30" value="Render widgets" style="shape=process;whiteSpace=wrap;html=1;backgroundOutline=1;" vertex="1" parent="WIyWlLk6GJQsqaUBKTNV-1">
          <mxGeometry x="365" y="470" width="120" height="60" as="geometry" />
        </mxCell>
        <mxCell id="ug3Sa1Ug3LmE54OEP5yn-32" value="Display image" style="rounded=1;whiteSpace=wrap;html=1;" vertex="1" parent="WIyWlLk6GJQsqaUBKTNV-1">
          <mxGeometry x="205" y="470" width="120" height="60" as="geometry" />
        </mxCell>
        <mxCell id="ug3Sa1Ug3LmE54OEP5yn-35" style="edgeStyle=orthogonalEdgeStyle;rounded=0;orthogonalLoop=1;jettySize=auto;html=1;exitX=0.5;exitY=0;exitDx=0;exitDy=0;exitPerimeter=0;" edge="1" parent="WIyWlLk6GJQsqaUBKTNV-1" source="ug3Sa1Ug3LmE54OEP5yn-34">
          <mxGeometry relative="1" as="geometry">
            <mxPoint x="350" y="160" as="targetPoint" />
          </mxGeometry>
        </mxCell>
        <mxCell id="ug3Sa1Ug3LmE54OEP5yn-34" value="We have to start at this point until we have hardware built" style="shape=note;whiteSpace=wrap;html=1;backgroundOutline=1;darkOpacity=0.05;" vertex="1" parent="WIyWlLk6GJQsqaUBKTNV-1">
          <mxGeometry x="334" y="230" width="80" height="100" as="geometry" />
        </mxCell>
        <mxCell id="ug3Sa1Ug3LmE54OEP5yn-36" value="&lt;h1 style=&quot;margin-top: 0px;&quot;&gt;CyberGlass&lt;/h1&gt;&lt;p&gt;Cyberpunk-inspired goggles that assist the wearer with common tasks and adjusts the real world for sensory sensitive individuals.&lt;/p&gt;&lt;p&gt;This flow describes the basics of how the imaging system flows.&amp;nbsp;&lt;/p&gt;" style="text;html=1;whiteSpace=wrap;overflow=hidden;rounded=0;" vertex="1" parent="WIyWlLk6GJQsqaUBKTNV-1">
          <mxGeometry x="10" y="320" width="180" height="150" as="geometry" />
        </mxCell>
      </root>
    </mxGraphModel>
  </diagram>
</mxfile>
